<?xml version="1.0" encoding="UTF-8"?>
<!DOCTYPE svg PUBLIC "-//W3C//DTD SVG 1.1//EN" "http://www.w3.org/Graphics/SVG/1.1/DTD/svg11.dtd">
<!-- Creator: CorelDRAW -->
<svg xmlns="http://www.w3.org/2000/svg" xml:space="preserve" width="4.3276mm" height="1.0159mm" style="shape-rendering:geometricPrecision; text-rendering:geometricPrecision; image-rendering:optimizeQuality; fill-rule:evenodd; clip-rule:evenodd"
viewBox="0 0 4.3276 1.0159"
 xmlns:xlink="http://www.w3.org/1999/xlink">
 <defs>
  <style type="text/css">
   <![CDATA[
    .fil0 {fill:white;fill-rule:nonzero}
   ]]>
  </style>
 </defs>
 <g id="图层_x0020_1">
  <metadata id="CorelCorpID_0Corel-Layer"/>
  <path class="fil0" d="M0.8268 0.3865l0 0.4779c0,0.0311 0.0135,0.0467 0.0406,0.0467l0.0377 0c0.023,0 0.0369,-0.0196 0.0416,-0.059 0.0054,-0.0406 0.0099,-0.0958 0.0132,-0.1657 0.0224,0.0102 0.0472,0.0201 0.0743,0.0295 -0.0075,0.0779 -0.0136,0.1326 -0.0182,0.1638 -0.0096,0.0684 -0.0441,0.1026 -0.1038,0.1026l-0.0712 0c-0.0597,0 -0.0895,-0.0379 -0.0895,-0.1139l0 -0.4129 -0.2145 0 0 0.0875c0,0.1194 -0.012,0.2116 -0.0356,0.2767 -0.0252,0.069 -0.071,0.1345 -0.1373,0.1962 -0.0191,-0.0203 -0.0397,-0.0394 -0.0621,-0.0569 0.0644,-0.0564 0.1071,-0.1133 0.1282,-0.1709 0.021,-0.0542 0.0314,-0.1356 0.0314,-0.244l0 -0.1576 0.3652 0zm-0.8166 0.2664c0.0677,-0.1038 0.1186,-0.2234 0.1526,-0.3589l-0.1364 0 0 -0.0703 0.1373 0 0 -0.2034 0.0742 0 0 0.2034 0.122 0 0 0.0703 -0.122 0 0 0.1596 0.0438 -0.0407c0.048,0.044 0.0921,0.0881 0.1322,0.1322l-0.0569 0.0559c-0.034,-0.0417 -0.0736,-0.0858 -0.1191,-0.1323l0 0.5401 -0.0742 0 0 -0.5237c-0.0335,0.1013 -0.0738,0.1867 -0.121,0.2563 -0.0089,-0.0285 -0.0196,-0.058 -0.0325,-0.0885zm0.3742 -0.473l0.5958 0 0 0.0714 -0.5958 0 0 -0.0714zm0.1769 -0.1381l0.0642 -0.0418c0.0331,0.0401 0.0666,0.0828 0.1006,0.1282l-0.0682 0.0467c-0.0284,-0.0441 -0.0607,-0.0885 -0.0966,-0.1331z"/>
  <path id="1" class="fil0" d="M1.9632 0.0265l0.0803 0 0 0.9742 -0.0803 0 0 -0.9742zm-0.3233 0.0193l0.0803 0 0 0.9356 -0.0803 0 0 -0.9356zm-0.3225 -0.0153l0.0804 0 0 0.415c0,0.2535 -0.0658,0.4406 -0.1972,0.5612 -0.017,-0.0196 -0.0373,-0.0409 -0.0611,-0.064 0.1192,-0.1064 0.1786,-0.281 0.1779,-0.5238l0 -0.3884zm-0.121 0.2675l0.0754 0.0184c-0.0245,0.1077 -0.0516,0.2035 -0.0814,0.2877 -0.0264,-0.0102 -0.0509,-0.0187 -0.0733,-0.0255 0.032,-0.0882 0.0583,-0.1817 0.0793,-0.2806zm0.235 0.0335l0.0701 -0.0285c0.0374,0.0875 0.0698,0.1668 0.0976,0.2379l-0.0762 0.0327c-0.0259,-0.0773 -0.0562,-0.158 -0.0915,-0.2421zm0.3202 0.002l0.0703 -0.0305c0.0372,0.0835 0.0712,0.1638 0.1017,0.2411l-0.0743 0.0326c-0.0277,-0.08 -0.0604,-0.1611 -0.0977,-0.2432z"/>
  <path id="12" class="fil0" d="M2.5536 0.3936l0.48 0 0.0071 -0.0967 -0.416 0 0 -0.0671 0.4206 0 0.0066 -0.0945 -0.4435 0 0 -0.0692 0.5238 0 -0.0234 0.3275 0.1241 0 0 0.0691 -0.302 0 0 0.0447c0.0196,0.0533 0.0427,0.1012 0.0691,0.1439 0.0543,-0.0434 0.1037,-0.0909 0.1485,-0.1428l0.0599 0.0519c-0.047,0.0487 -0.1024,0.0987 -0.1663,0.1499 0.0537,0.0661 0.1186,0.1154 0.1948,0.1481 -0.025,0.021 -0.0478,0.0426 -0.0681,0.065 -0.098,-0.0539 -0.1773,-0.1395 -0.2379,-0.2568l0 0.206c0,0.0868 -0.042,0.1302 -0.1262,0.1302 -0.0298,0 -0.0739,-0.0004 -0.1322,-0.0011 -0.004,-0.0259 -0.009,-0.054 -0.0151,-0.0845 0.052,0.0055 0.0947,0.0081 0.1281,0.0081 0.0454,0 0.068,-0.0239 0.068,-0.0721l0 -0.3905 -0.2999 0 0 -0.0691zm-0.2055 0.2266c0.0639,-0.0086 0.1298,-0.0189 0.1984,-0.0303 -0.0042,0.0264 -0.0071,0.052 -0.0092,0.0772 -0.0922,0.0135 -0.1854,0.0281 -0.2796,0.0437l-0.0153 -0.0753c0.0356,-0.0363 0.084,-0.1071 0.1455,-0.2124 -0.0601,0.0036 -0.1082,0.0075 -0.1444,0.0111l-0.0195 -0.0691c0.0604,-0.0807 0.1234,-0.2001 0.1892,-0.358l0.0764 0.0305c-0.0705,0.1397 -0.1295,0.2468 -0.1771,0.3215 0.037,-0.0011 0.0748,-0.002 0.1135,-0.0027 0.0247,-0.0444 0.0512,-0.0937 0.0799,-0.148l0.0751 0.0337c-0.0861,0.1498 -0.1636,0.2759 -0.2329,0.3781zm-0.127 0.2401c0.0907,-0.019 0.1956,-0.0438 0.3141,-0.0741 -0.0019,0.0366 -0.003,0.0616 -0.003,0.0751 -0.0921,0.0224 -0.1888,0.0479 -0.2898,0.0764l-0.0213 -0.0774zm0.5836 -0.1953c0.0089,0.0252 0.0196,0.0486 0.0326,0.0703 -0.0617,0.0392 -0.1431,0.0929 -0.2441,0.1605l-0.0478 -0.0669c0.0908,-0.0523 0.1774,-0.107 0.2593,-0.1639zm-0.1768 -0.1668c0.0453,0.0374 0.0914,0.079 0.1383,0.1252 -0.0198,0.0177 -0.0391,0.0355 -0.058,0.0539 -0.0461,-0.0508 -0.0895,-0.0949 -0.1301,-0.1322l0.0498 -0.0469z"/>
  <path id="123" class="fil0" d="M3.6789 0.5909l0.5736 0 0 0.4219 -0.0774 0 0 -0.0701 -0.419 0 0 0.0701 -0.0772 0 0 -0.4219zm-0.0163 -0.1923l0.2593 0 0 -0.1586 -0.2939 0 0 -0.0732 0.2939 0 0 -0.1495 0.0824 0 0 0.1495 0.3233 0 0 0.0732 -0.3233 0 0 0.1586 0.2725 0 0 0.0733 -0.6142 0 0 -0.0733zm0.5125 0.2654l-0.419 0 0 0.2055 0.419 0 0 -0.2055zm-0.6915 -0.0793c0.0325,0.0142 0.0601,0.0248 0.0823,0.0316 -0.0371,0.1348 -0.0741,0.2653 -0.1107,0.3915l-0.0885 -0.0316c0.0447,-0.1185 0.0836,-0.249 0.1169,-0.3915zm-0.063 -0.5603c0.0854,0.0679 0.1437,0.1174 0.1748,0.1484 -0.0229,0.0238 -0.043,0.0448 -0.0599,0.0632 -0.0461,-0.0475 -0.1017,-0.0994 -0.1668,-0.1557l0.0519 -0.0559zm-0.0468 0.2807c0.0623,0.0454 0.1213,0.0914 0.177,0.1383 -0.0212,0.0224 -0.0401,0.0437 -0.0571,0.064 -0.0731,-0.0657 -0.1302,-0.1138 -0.1708,-0.1444l0.0509 -0.0579z"/>
 </g>
</svg>